<?xml version="1.0" encoding="UTF-8"?><svg xmlns="http://www.w3.org/2000/svg" xmlns:xlink="http://www.w3.org/1999/xlink" viewBox="0 0 736.72 849.5"><defs><style>.cls-1{fill:none;}.cls-2{filter:url(#outer-glow-3);font-family:CaflischScriptPro-Regular, 'Caflisch Script Pro';font-size:335.65px;}.cls-2,.cls-3{fill:#272828;}.cls-4{filter:url(#outer-glow-1);}.cls-5{letter-spacing:0em;}.cls-3{filter:url(#outer-glow-2);font-family:FinoSans-Regular, 'Fino Sans';font-size:337.26px;}.cls-6{letter-spacing:0em;}.cls-7{clip-path:url(#clippath);}</style><clipPath id="clippath"><polygon class="cls-1" points="705.5 195.75 427.7 35.35 367.4 .55 307.1 35.35 29.3 195.75 0 212.65 0 636.85 29.3 653.75 310.6 816.15 367.5 848.95 424.4 816.15 705.7 653.75 735 636.85 735 212.65 705.5 195.75"/></clipPath><filter id="outer-glow-1" x="303.62" y="628.55" width="131" height="145" filterUnits="userSpaceOnUse"><feOffset dx="0" dy="0"/><feGaussianBlur result="blur" stdDeviation="5"/><feFlood flood-color="#fff" flood-opacity=".75"/><feComposite in2="blur" operator="in"/><feComposite in="SourceGraphic"/></filter><filter id="outer-glow-2" filterUnits="userSpaceOnUse"><feOffset dx="0" dy="0"/><feGaussianBlur result="blur-2" stdDeviation="5"/><feFlood flood-color="#fff" flood-opacity=".75"/><feComposite in2="blur-2" operator="in"/><feComposite in="SourceGraphic"/></filter><filter id="outer-glow-3" filterUnits="userSpaceOnUse"><feOffset dx="0" dy="0"/><feGaussianBlur result="blur-3" stdDeviation="5"/><feFlood flood-color="#fff" flood-opacity=".75"/><feComposite in2="blur-3" operator="in"/><feComposite in="SourceGraphic"/></filter></defs><g id="Layer_3"><g class="cls-4"><path d="M405.96,747.27h13.6v10.56h-20.76l-34.39-51.55h-18.33v40.99h17.93v10.56h-45.12v-10.56h15.5v-90.84l-15.5-1.9v-9.99c5.87,1.34,10.97,2.27,17.36,2.27,9.63,0,19.46-2.27,29.09-2.27,18.69,0,36.05,8.5,36.05,29.26,0,16.06-9.63,26.26-24.56,30.59l29.13,42.89ZM346.07,696.08l9.83.2c24,.36,33.22-8.86,33.22-21.16,0-14.36-10.4-20.03-23.59-20.03-6.23,0-12.67.57-19.46,1.34v39.66Z"/></g><text class="cls-3" transform="translate(104.27 388.81)"><tspan x="0" y="0">G</tspan><tspan class="cls-6" x="230.35" y="0">e</tspan><tspan class="cls-5" x="355.14" y="0">o</tspan></text><text class="cls-2" transform="translate(143.66 565.29)"><tspan x="0" y="0">mag</tspan></text></g><g id="Layer_1"><path d="M369.12,4.01l58.8,33.93,277.81,160.41,27.99,16.04v420.73l-27.8,16.03-281.3,162.4-55.4,31.94-55.4-31.94L32.52,651.15l-27.8-16.03V214.38l27.8-16.03L310.32,37.95l58.8-33.93M369.12.55l-60.3,34.8L31.02,195.75,1.72,212.65v424.2l29.3,16.9,281.3,162.4,56.9,32.8,56.9-32.8,281.3-162.4,29.3-16.9V212.65l-29.5-16.9L429.42,35.35,369.12.55h0Z"/></g></svg>